<svg xmlns="http://www.w3.org/2000/svg" width="155" height="61" viewBox="0 0 155 61">
    <g fill="#FFF" fill-rule="evenodd">
        <path d="M23.89 47.793c.472-.68.973-1.088.926-1.418-.05-.35-.589-.808-.97-.87-.245-.04-.822.54-.833.857-.014.366.431.75.877 1.43m-4.628-36.24c-.47.616-.99 1-.956 1.328.037.364.572.933.9.94.33.006.887-.534.944-.898.05-.323-.45-.734-.888-1.37m16.543 32.791c-.641-.436-1.04-.92-1.385-.884-.359.038-.665.579-.995.9.33.325.64.878.997.912.345.032.74-.469 1.383-.928M12.277 16.612c-.456.64-.947 1.029-.91 1.357.042.367.562.679.873 1.014.332-.32.88-.61.932-.972.049-.327-.443-.735-.895-1.399m19.778-6.646c-.592-.444-.974-.954-1.325-.933-.361.021-.693.558-1.037.87.339.356.637.922 1.03 1 .306.06.73-.488 1.332-.937m3.13-1.642l.23-.158c-.064-.377.003-.902-.218-1.1-.533-.478-1.733-.138-2.052.613-.182.43-.036 1.002-.018 1.51 0 .024.225.093.298.053.556-.306.824.044 1.173.405.168.174.566.122.86.173.045-.327.145-.66.114-.978-.019-.184-.25-.346-.386-.518m-17.958 21.53l.229-.158c-.064-.377.004-.903-.218-1.101-.533-.478-1.733-.137-2.051.613-.183.43-.037 1.003-.02 1.51.002.024.226.093.3.053.555-.306.823.044 1.173.405.168.174.566.122.86.173.044-.327.145-.66.113-.978-.018-.184-.25-.345-.386-.517m.508 15.707c.755.085 1.523-.556 1.6-1.333.073-.739-.604-1.571-1.372-1.574-.827-.004-1.375.455-1.516 1.29-.132.781.491 1.529 1.288 1.617m.077-27.427c.1-.052.595-.15.718-.42.108-.238-.127-.729-.343-1a12.379 12.379 0 0 0-1.438-1.494c-.607-.543-1.029-.383-1.228.412-.325 1.302.63 2.5 2.29 2.502M37.1 40.26c.072.188.152.602.37.918.192.275.54.603.817.602.219 0 .513-.432.64-.73.3-.708.518-1.451.773-2.178.269-.763-.147-.942-.77-.872-.976.11-1.808 1.068-1.83 2.26m-5.073-26.02l-.195-1.394c-.953.05-1.707.156-1.783 1.27-.112 1.63.452 2.555 1.794 2.792-.124-1.035.593-1.165 1.353-1.309.705-.133 1.395-.348 2.13-.536-.104-.766-.197-1.449-.288-2.133-.01-.072.023-.185-.014-.214-.269-.21-.561-.589-.826-.573-1.35.078-1.597.377-2.171 2.097m-3.093 26.261c-1.874.023-3.192 1.623-2.855 3.192.134.628.531 1.017 1.067.647.832-.574 1.129-.1 1.53.494.558.825 1.269.958 1.798.383.59-.64.313-1.227-.199-1.728-.483-.472-.745-.849-.078-1.419.516-.44.31-.96-.22-1.25-.37-.203-.82-.255-1.043-.319m4.13-19.513c.022 1.872 1.623 3.19 3.194 2.853.629-.135 1.018-.531.647-1.066-.574-.831-.1-1.128.495-1.53.826-.557.959-1.266.384-1.795-.642-.59-1.229-.314-1.73.198-.473.483-.85.745-1.42.078-.44-.515-.962-.309-1.252.22-.203.369-.255.82-.319 1.042m-2.534 12.024a1.795 1.795 0 1 0 .002-3.59 1.795 1.795 0 0 0-.002 3.59zM9.698 27.27a1.795 1.795 0 1 0 0-3.59 1.795 1.795 0 0 0 0 3.59zm13.647-2.153a1.795 1.795 0 1 0 .002-3.59 1.795 1.795 0 0 0-.002 3.59zm17.958 7.176a1.795 1.795 0 1 0 .001-3.59 1.795 1.795 0 0 0-.001 3.59zm-19.395 5.024a1.077 1.077 0 1 0 .001-2.154 1.077 1.077 0 0 0 0 2.154zm-18.696-7.81c.01 7.376 3.67 14.34 9.682 18.377.517.348 1.159 1.042 1.692.246.538-.804-.434-1.02-.877-1.328-9.49-6.589-11.974-19.355-5.63-29.028.201-.305.433-.61.536-.951.057-.192-.055-.573-.208-.658-.206-.116-.596-.132-.778-.005-.286.2-.485.543-.685.848-2.486 3.79-3.74 7.954-3.732 12.498m21.921 22.377c1.444-.13 2.648-.21 3.844-.36.685-.085 1.362-.263 2.035-.434 8.792-2.24 15.624-10.167 16.515-19.17.052-.53.205-1.241-.584-1.313-.764-.069-.76.618-.829 1.174-.748 6.053-3.496 10.967-8.396 14.568-5.002 3.677-10.594 4.76-16.659 3.597-.436-.084-1.287.124-1.361.373-.247.833.571.894 1.1.98 1.51.248 3.035.415 4.335.585m3.293-35.173c-.103-.794-.142-1.457-.293-2.093-.075-.317-.292-.749-.551-.848-1.15-.438-1.02-1.304-.825-2.197.559-2.549 1.152-5.09 1.691-7.643.071-.336.04-.857-.167-1.06-1.115-1.096-.28-2.813 1.24-2.863 1.439-.047 2.915.144 4.33.447 2.929.628 5.62 1.859 8.055 3.634 1.164.848 1.453 1.623.893 2.461-.545.816-1.453.806-2.633.211a98.453 98.453 0 0 0-6.067-2.787c-.331-.14-.861.2-1.3.317.312.327.57.835.946.952 2.438.758 4.71 1.834 6.726 3.41.339.264.751.762.707 1.096-.04.312-.62.736-1.004.785-1.478.19-1.988 1.033-1.718 2.539l-.33-.044c-.089-.248-.158-.505-.272-.741-.144-.298-.285-.775-.499-.818-.28-.056-.724.152-.932.392-.787.907-.11 3.395 1.102 3.896-.319-1.243.403-1.286 1.284-1.227 1.15.078 2.084.603 2.664 1.538 1.216 1.96 2.324 3.987 3.467 5.992.125.221.126.541.292.704.227.221.556.334.841.494.134-.3.446-.66.37-.891-.343-1.044-.727-2.086-1.228-3.061-.552-1.077-1.232-2.09-1.886-3.11-.622-.971-.596-1.916.114-2.476s1.834-.367 2.508.525c2.32 3.07 3.835 6.517 4.56 10.302.897 4.692.558 9.291-1.002 13.819-1.29 3.744-1.433 7.649-1.396 11.567.016 1.67-.256 2.136-1.198 2.167-.99.033-1.333-.527-1.335-2.174 0-.554.078-1.124-.032-1.655-.078-.38-.336-.852-.65-1.014-.264-.135-.808.008-1.086.218-1.898 1.435-3.763 2.916-5.632 4.391-1.177.93-1.69 2.19-1.714 3.667-.019 1.217.014 2.436-.018 3.652-.03 1.17-.71 1.845-1.753 1.814-.958-.028-1.614-.746-1.644-1.833-.02-.7.004-1.402-.007-2.103-.027-1.693-.929-2.519-2.578-2.335-1.016.113-2.03.26-3.04.417-1.542.238-2.04.833-2.22 2.376-.055.46-.267 1.045-.609 1.301-.777.585-1.758.007-1.9-1.023-.299-2.162-.9-2.812-3.05-3.295-.106-.024-.212-.054-.318-.081-2.816-.723-3.467-.272-3.767 2.615-.101.966-.711 1.525-1.674 1.533-.973.008-1.68-.618-1.718-1.614-.042-1.106-.002-2.214-.016-3.32-.025-2.004-1.521-3.913-3.432-4.384-.672-.166-1.154.057-1.346.764-.208.765-.692 1.113-1.473.957-.748-.149-.837-.732-.805-1.36.159-3.063-1.034-5.754-2.283-8.43-2.061-4.415-3.157-9.06-2.72-13.93C1.13 15.725 9.464 6.808 19.467 4.619c.678-.149 1.364-.392 2.041-.377.735.016 1.537.15 2.169.494.343.187.637 1 .511 1.383-.14.427-.767.951-1.21.978-3.513.21-6.599 1.55-9.465 3.484-.34.228-.762.91-.651 1.13.34.677.889.319 1.38.006a20.61 20.61 0 0 1 7.838-3c1.207-.196 1.788.428 1.463 1.64-.276 1.03-.594 2.048-.853 3.081-.562 2.239 1.065 4.1 3.337 3.796.787-.105 1.559-.336 2.4-.523M81.166 10.21l-.654 18.34-2.117.185c-.315.028-.575-.002-.78-.089-.203-.086-.403-.242-.599-.468l-7.318-10.653c.017.484.017.919 0 1.305l-.318 10.694-3.587.314.654-18.34 2.142-.187c.175-.015.322-.022.444-.02a.92.92 0 0 1 .325.06.844.844 0 0 1 .266.17c.082.077.17.178.265.304l7.344 10.65.001-.84c.002-.269.01-.52.022-.756l.324-10.355 3.586-.313zm11.14 10.294l-.263 7.037-4.06.355.255-6.986-5.652-10.824 3.61-.316c.35-.03.629.027.838.172.21.145.371.346.486.604l2.223 5.339c.312.692.557 1.348.737 1.968.13-.33.277-.666.439-1.011l.518-1.106 2.608-5.761c.122-.228.291-.446.507-.653.216-.207.494-.326.835-.356l3.362-.294-6.443 11.832zm13.542-3.406c.581-.05 1.061-.179 1.44-.383.38-.205.679-.474.896-.806.218-.333.362-.72.432-1.161a5.87 5.87 0 0 0 .038-1.434 3.231 3.231 0 0 0-.23-.971 2.041 2.041 0 0 0-.51-.733 2.03 2.03 0 0 0-.797-.439c-.313-.094-.677-.123-1.093-.086l-1.917.168-.214 6.016 1.955-.17zm.31-9.074c1.08-.094 2.014-.044 2.805.15.791.194 1.453.5 1.988.918.534.417.945.93 1.232 1.536.287.606.463 1.27.526 1.993a8.088 8.088 0 0 1-.215 2.785 5.793 5.793 0 0 1-1.197 2.307c-.569.669-1.315 1.22-2.24 1.651-.924.433-2.037.706-3.34.82l-1.93.169-.225 6.18-4.035.353.63-18.337 6.001-.525zM75.182 45.931c.456-.04.85-.11 1.18-.21.33-.1.61-.215.842-.344.23-.129.424-.265.579-.408.154-.143.294-.275.417-.394.123-.12.24-.22.35-.3a.71.71 0 0 1 .364-.14.71.71 0 0 1 .336.04.54.54 0 0 1 .207.14l1.569 1.581a7.834 7.834 0 0 1-2.621 2.381c-1.041.58-2.25.931-3.629 1.052-1.145.1-2.178-.012-3.097-.338a6.423 6.423 0 0 1-2.38-1.467c-.669-.652-1.2-1.448-1.596-2.388-.396-.94-.643-1.97-.741-3.091-.091-1.038-.061-2.032.09-2.982.151-.95.404-1.838.758-2.664.355-.825.801-1.58 1.34-2.263a9.492 9.492 0 0 1 1.833-1.779 9.448 9.448 0 0 1 4.811-1.8 8.36 8.36 0 0 1 1.878.03c.572.079 1.094.213 1.567.402a5.722 5.722 0 0 1 2.31 1.674l-1.275 1.767c-.09.125-.197.24-.322.342-.125.103-.295.164-.51.183a.767.767 0 0 1-.396-.066 2.86 2.86 0 0 1-.376-.212 54.925 54.925 0 0 0-.432-.282 2.733 2.733 0 0 0-.563-.27 3.893 3.893 0 0 0-.763-.178 4.556 4.556 0 0 0-1.023-.011 4.802 4.802 0 0 0-2.093.672 5.072 5.072 0 0 0-1.597 1.539c-.433.644-.75 1.408-.948 2.291-.199.884-.252 1.856-.159 2.919.068.772.222 1.453.461 2.043.24.59.54 1.08.9 1.47.361.391.775.677 1.243.858.467.18.963.248 1.486.203zm12.132-.585a1.858 1.858 0 0 0 1.124-.494c.318-.291.575-.673.772-1.146a6.226 6.226 0 0 0 .41-1.63c.075-.613.084-1.26.024-1.94-.082-.939-.267-1.598-.556-1.978-.288-.38-.719-.546-1.292-.496a1.858 1.858 0 0 0-1.123.494c-.318.291-.575.671-.773 1.14a6.115 6.115 0 0 0-.41 1.63 9.314 9.314 0 0 0-.023 1.946c.08.922.265 1.577.554 1.966.29.389.72.558 1.293.508zm-.098 2.894a5.617 5.617 0 0 1-2.055-.184 4.639 4.639 0 0 1-1.723-.91 4.863 4.863 0 0 1-1.233-1.61c-.32-.654-.52-1.42-.596-2.3-.1-1.147-.004-2.215.29-3.207a7.97 7.97 0 0 1 1.308-2.618 6.982 6.982 0 0 1 2.08-1.826 6.278 6.278 0 0 1 2.608-.817 5.567 5.567 0 0 1 2.048.184 4.65 4.65 0 0 1 1.718.91c.5.42.914.958 1.238 1.61.325.654.526 1.42.603 2.3.099 1.13.001 2.19-.292 3.182a8.049 8.049 0 0 1-1.308 2.624 7.02 7.02 0 0 1-2.079 1.838 6.222 6.222 0 0 1-2.607.824zm11.787-11.997c.55-.885 1.177-1.557 1.881-2.016a4.825 4.825 0 0 1 2.24-.792 3.315 3.315 0 0 1 1.491.196c.463.177.86.46 1.191.85.331.389.586.883.764 1.482.178.6.251 1.298.22 2.095l-.253 8.291-3.86.338.254-8.291c.01-.352 0-.648-.034-.888s-.094-.427-.181-.561a.673.673 0 0 0-.338-.278 1.11 1.11 0 0 0-.481-.052c-.283.024-.57.137-.862.339a3.42 3.42 0 0 0-.813.817c-.25.344-.471.753-.664 1.225a6.778 6.778 0 0 0-.417 1.549l-.15 6.462-3.86.338.414-13.048 1.993-.174c.398-.035.718.03.958.198.24.167.38.463.416.886l.09 1.034zm13.735-1.202c.55-.885 1.177-1.557 1.881-2.016a4.825 4.825 0 0 1 2.24-.792 3.315 3.315 0 0 1 1.491.196c.463.177.86.46 1.191.85.331.389.586.883.764 1.483.178.599.251 1.297.22 2.095l-.253 8.29-3.86.338.254-8.29c.01-.353 0-.649-.034-.889s-.094-.426-.181-.561a.673.673 0 0 0-.338-.278 1.11 1.11 0 0 0-.481-.052c-.283.025-.57.138-.862.339a3.42 3.42 0 0 0-.813.818c-.25.344-.471.752-.664 1.225a6.778 6.778 0 0 0-.417 1.548l-.15 6.463-3.86.338.414-13.049 1.993-.174c.398-.035.718.031.958.198.24.168.38.463.416.886l.09 1.034zm15.807-1.182c-.64.056-1.177.36-1.614.913-.437.552-.733 1.283-.887 2.191a17.049 17.049 0 0 0 1.907-.568c.486-.185.859-.37 1.119-.556.26-.186.43-.374.509-.565.08-.191.11-.394.09-.61a.92.92 0 0 0-.302-.589c-.183-.176-.457-.248-.822-.216zm4.967 7.721c-.417.488-.83.916-1.237 1.282a7.352 7.352 0 0 1-1.274.927c-.442.252-.918.45-1.428.595a9.061 9.061 0 0 1-1.687.298 5.527 5.527 0 0 1-2.139-.208A4.795 4.795 0 0 1 124 43.51a4.99 4.99 0 0 1-1.222-1.63c-.312-.651-.504-1.387-.576-2.209a8.852 8.852 0 0 1 .054-2.037c.097-.67.263-1.305.499-1.907a7.77 7.77 0 0 1 .912-1.686c.373-.522.803-.98 1.292-1.374a6.549 6.549 0 0 1 3.583-1.43c.689-.06 1.31-.015 1.862.138a4.327 4.327 0 0 1 1.42.66c.393.287.702.622.928 1.004.226.382.356.772.391 1.17a3.7 3.7 0 0 1-.208 1.643c-.19.506-.556.975-1.1 1.408-.543.432-1.291.824-2.243 1.175-.953.35-2.161.666-3.626.944.094.879.343 1.505.748 1.88.405.374.969.53 1.691.467.34-.03.633-.085.877-.165s.455-.173.634-.281c.179-.108.338-.218.48-.33l.404-.325c.129-.103.265-.19.41-.261.144-.071.312-.115.503-.132.124-.011.247.01.369.062s.232.124.332.215l1.098 1.071zm11.417-.873c-.375.493-.74.914-1.094 1.262a5.612 5.612 0 0 1-1.116.864 5.44 5.44 0 0 1-1.265.53 8.259 8.259 0 0 1-1.514.265c-.756.066-1.448-.003-2.076-.208a4.37 4.37 0 0 1-1.646-.96 4.948 4.948 0 0 1-1.14-1.632c-.292-.652-.474-1.397-.548-2.235a8.737 8.737 0 0 1 .255-3.047 7.908 7.908 0 0 1 1.226-2.617 7 7 0 0 1 2.05-1.892c.81-.493 1.72-.784 2.734-.873.863-.075 1.617.007 2.261.248.644.24 1.239.655 1.784 1.243l-1.12 1.541c-.083.1-.18.19-.29.27a.732.732 0 0 1-.377.14.772.772 0 0 1-.426-.07c-.118-.06-.247-.124-.387-.192a2.994 2.994 0 0 0-.505-.181c-.198-.054-.45-.068-.757-.04a2.124 2.124 0 0 0-1.085.427c-.342.251-.636.597-.882 1.037-.246.44-.428.97-.545 1.59-.117.622-.142 1.318-.074 2.09.037.432.12.803.248 1.114.127.311.288.565.48.761.193.197.41.339.653.426.241.088.495.12.76.097.4-.035.716-.12.951-.253s.438-.275.61-.423c.17-.15.33-.286.478-.412a.967.967 0 0 1 .558-.219c.124-.01.247.01.37.062.12.052.231.12.33.203l1.1 1.084zm2.159-.716l-.019-.212a4.735 4.735 0 0 1-.012-.356c-.001-.155.002-.36.009-.616.006-.256.017-.593.03-1.013l.198-5.337-1.033.09a.565.565 0 0 1-.453-.155c-.128-.118-.181-.304-.162-.556l.043-1.522 1.92-.57.808-3.245c.106-.411.37-.635.794-.672l2.092-.183-.143 3.814 2.889-.252-.093 2.668-2.889.253-.179 5.122a153.157 153.157 0 0 1-.046 1.265 2.173 2.173 0 0 0 0 .214l.006.068c.02.24.094.437.22.59.127.151.31.217.551.196a1.063 1.063 0 0 0 .548-.192 4.38 4.38 0 0 1 .178-.116.441.441 0 0 1 .195-.061c.117-.01.204.01.263.058.059.05.122.13.19.24L154 41.269a5.886 5.886 0 0 1-3.339 1.421 4.137 4.137 0 0 1-1.362-.087 2.796 2.796 0 0 1-1.834-1.39 3.356 3.356 0 0 1-.377-1.221z"/>
    </g>
</svg>
